<svg xmlns="http://www.w3.org/2000/svg" width="128" height="128" fill-rule="evenodd" clip-rule="evenodd" enable-background="new -362.4 459.1 500 500" image-rendering="optimizeQuality" shape-rendering="geometricPrecision" text-rendering="geometricPrecision" viewBox="0 0 1333.33 1333.33" id="adobe-illustrator-logo">
    <defs>
        <radialGradient id="a" cx="1283.77" cy="1009.78" r="164.77" fx="1283.77" fy="1009.78" gradientTransform="matrix(2.77779 0 0 2.70255 -2282 -1719)" gradientUnits="userSpaceOnUse">
            <stop offset="0" stop-color="#423325" stop-opacity=".98"></stop>
            <stop offset="1" stop-color="#1c0a00"></stop>
        </radialGradient>
    </defs>
    <polygon fill="url(#a)" points="327.48 336.74 1005.7 336.74 1005.7 996.58 327.48 996.59"></polygon>
    <path fill="#ff7f18" d="M327.48 336.74l678.22 0 0 659.84 -678.22 0 0 -659.84zm-30.82 690.66l740 0 0 -721.48 -740 0 0 721.48zm484.69 -464.24c0,-2.52 0.89,-3.7 3.7,-3.7l48.45 0c2.52,0 3.7,0.89 3.7,3.7l0 243.31c0,2.52 -0.59,3.7 -3.7,3.7l-47.86 0c-3.11,0 -4,-1.48 -4,-4l0 -243.01 -0.3 0 0 0zm-3.41 -70.09c0,-19.7 13.93,-31.41 31.42,-31.41 18.82,0 31.41,12.59 31.41,31.41 0,20.3 -13.19,31.42 -32.01,31.42 -17.78,0.15 -30.82,-10.96 -30.82,-31.42zm-138.69 171.44c-8.59,-34.23 -29.04,-108.76 -36.75,-144.92l-0.59 -0c-6.52,36.01 -22.82,97.06 -35.71,144.92l73.06 0 0 0zm-85.65 49.94l-24.3 92.46c-0.59,2.52 -1.48,3.11 -4.59,3.11l-45.35 0c-3.11,0 -3.7,-0.89 -3.11,-4.59l87.57 -306.43c1.48,-5.48 2.52,-10.52 3.11,-25.63 0,-2.22 0.89,-3.11 2.52,-3.11l64.75 0c2.22,0 3.11,0.59 3.7,3.11l98.09 332.66c0.59,2.52 0,4 -2.52,4l-51.12 0c-2.52,0 -4,-0.59 -4.59,-2.81l-25.34 -92.76 -98.83 0 0 0z"></path>
</svg>